HIERARCHY
ROOT root
{
	OFFSET 0.000000 0.000000 0.000000
	CHANNELS 6 Xposition Yposition Zposition Zrotation Yrotation Xrotation
	JOINT lhip
	{
		OFFSET 0.058581 -0.082280 -0.017664
		CHANNELS 3 Zrotation Yrotation Xrotation
		JOINT lknee
		{
			OFFSET 0.043451 -0.386469 0.008037
			CHANNELS 3 Zrotation Yrotation Xrotation
			JOINT lankle
			{
				OFFSET -0.014790 -0.426874 -0.037428
				CHANNELS 3 Zrotation Yrotation Xrotation
				JOINT ltoe
				{
					OFFSET 0.041054 -0.060286 0.122042
					CHANNELS 3 Zrotation Yrotation Xrotation
					End Site
					{
						OFFSET 0.000000 0.000000 0.000000
					}
				}
			}
		}
	}
	JOINT rhip
	{
		OFFSET -0.060310 -0.090513 -0.013543
		CHANNELS 3 Zrotation Yrotation Xrotation
		JOINT rknee
		{
			OFFSET -0.043257 -0.383688 -0.004843
			CHANNELS 3 Zrotation Yrotation Xrotation
			JOINT rankle
			{
				OFFSET 0.019056 -0.420046 -0.034562
				CHANNELS 3 Zrotation Yrotation Xrotation
				JOINT rtoe
				{
					OFFSET -0.034840 -0.062106 0.130323
					CHANNELS 3 Zrotation Yrotation Xrotation
					End Site
					{
						OFFSET 0.000000 0.000000 0.000000
					}
				}
			}
		}
	}
	JOINT lowerback
	{
		OFFSET 0.004439 0.124404 -0.038385
		CHANNELS 3 Zrotation Yrotation Xrotation
		JOINT upperback
		{
			OFFSET 0.004488 0.137956 0.026820
			CHANNELS 3 Zrotation Yrotation Xrotation
			JOINT chest
			{
				OFFSET -0.002265 0.056032 0.002855
				CHANNELS 3 Zrotation Yrotation Xrotation
				JOINT lowerneck
				{
					OFFSET -0.013390 0.211636 -0.033468
					CHANNELS 3 Zrotation Yrotation Xrotation
					JOINT upperneck
					{
						OFFSET 0.010113 0.088937 0.050410
						CHANNELS 3 Zrotation Yrotation Xrotation
						End Site
						{
							OFFSET 0.000000 0.000000 0.000000
						}
					}
				}
				JOINT lclavicle
				{
					OFFSET 0.071702 0.114000 -0.018898
					CHANNELS 3 Zrotation Yrotation Xrotation
					JOINT lshoulder
					{
						OFFSET 0.122921 0.045205 -0.019046
						CHANNELS 3 Zrotation Yrotation Xrotation
						JOINT lelbow
						{
							OFFSET 0.255332 -0.015649 -0.022946
							CHANNELS 3 Zrotation Yrotation Xrotation
							JOINT lwrist
							{
								OFFSET 0.265709 0.012698 -0.007375
								CHANNELS 3 Zrotation Yrotation Xrotation
								End Site
								{
									OFFSET 0.000000 0.000000 0.000000
								}
							}
						}
					}
				}
				JOINT rclavicle
				{
					OFFSET -0.082954 0.112472 -0.023707
					CHANNELS 3 Zrotation Yrotation Xrotation
					JOINT rshoulder
					{
						OFFSET -0.113228 0.046853 -0.008472
						CHANNELS 3 Zrotation Yrotation Xrotation
						JOINT relbow
						{
							OFFSET -0.260127 -0.014369 -0.031269
							CHANNELS 3 Zrotation Yrotation Xrotation
							JOINT rwrist
							{
								OFFSET -0.269108 0.006794 -0.006027
								CHANNELS 3 Zrotation Yrotation Xrotation
								End Site
								{
									OFFSET 0.000000 0.000000 0.000000
								}
							}
						}
					}
				}
			}
		}
	}
}
MOTION
Frames: 14
Frame Time: 0.033333
-0.035240 0.105307 0.985170 -175.344775 1.466818 90.942484 6.426894 5.257944 2.679771 -0.899290 -2.067133 -4.398763 -0.928109 7.844129 -6.934936 0.000000 -0.000000 0.000000 -4.918825 -7.907680 -0.012182 0.886790 -10.815727 -0.497032 1.925830 -9.623849 -5.599071 0.000000 -0.000000 0.000000 -2.224223 0.216326 -0.645688 2.401136 -3.273308 8.598844 1.104474 -1.379612 -7.057770 -0.908031 -0.044153 -2.667477 0.845650 -0.118354 -2.263784 -33.464864 -0.611279 3.648320 -53.092538 -4.806391 12.985299 8.883604 -21.622651 -9.056577 4.875913 -12.346485 -7.645456 29.494133 7.945429 3.699214 47.571963 7.347519 8.732004 -7.174300 9.507472 -20.050807 -0.970888 12.289021 -13.710965 
-0.035967 0.105184 0.984976 -175.216459 1.536725 90.967584 6.437158 5.129758 2.594614 -0.848799 -2.078717 -4.338752 -0.932809 7.820841 -6.955614 0.000000 -0.000000 0.000000 -4.911028 -7.993171 0.024684 0.952331 -10.810232 -0.596029 1.997065 -9.644400 -5.597956 0.000000 -0.000000 0.000000 -1.950974 0.130078 -0.603179 2.272923 -3.315501 8.389960 1.054592 -1.417196 -6.840854 -0.853772 0.003047 -2.910750 0.791697 -0.154822 -2.035314 -33.337949 -0.649608 3.661017 -53.253924 -4.883084 12.909638 8.925085 -21.573570 -8.808169 4.869944 -12.330243 -7.759813 29.397031 7.940208 3.727855 47.714282 7.421050 8.703083 -7.294831 9.522555 -19.945802 -0.975465 12.254518 -13.797603 
-0.036076 0.105181 0.984945 -175.219088 1.537913 90.971411 6.434308 5.131879 2.592659 -0.847661 -2.077973 -4.339105 -0.933652 7.820665 -6.956594 0.000000 -0.000000 0.000000 -4.912419 -7.992338 0.022063 0.953767 -10.810448 -0.597206 1.998011 -9.644093 -5.597381 0.000000 -0.000000 0.000000 -1.949283 0.130946 -0.611027 2.272988 -3.316893 8.391500 1.055882 -1.419314 -6.832355 -0.852975 0.005048 -2.917425 0.790284 -0.157823 -2.031801 -33.334315 -0.652179 3.662463 -53.256345 -4.888888 12.905527 8.928250 -21.569565 -8.802040 4.862383 -12.333922 -7.755700 29.396345 7.937905 3.729869 47.716228 7.422695 8.698729 -7.300222 9.523969 -19.943354 -0.973753 12.254401 -13.798243 
-0.036084 0.105182 0.984942 -175.219854 1.538075 90.972259 6.433697 5.132268 2.591995 -0.847403 -2.077663 -4.339335 -0.933668 7.820534 -6.956881 0.000000 -0.000000 0.000000 -4.912768 -7.991783 0.021098 0.954098 -10.810359 -0.597693 1.998423 -9.643893 -5.597171 0.000000 -0.000000 0.000000 -1.948663 0.131285 -0.612690 2.272680 -3.316802 8.391617 1.055794 -1.419370 -6.830319 -0.852691 0.005767 -2.919922 0.789913 -0.159018 -2.030421 -33.333750 -0.652954 3.662902 -53.257353 -4.890211 12.904302 8.929620 -21.568477 -8.800256 4.859849 -12.334751 -7.753769 29.396513 7.937893 3.730902 47.716830 7.422983 8.697251 -7.302984 9.525383 -19.943449 -0.973232 12.254345 -13.798531 
-0.036084 0.105182 0.984942 -175.219895 1.538085 90.972305 6.433674 5.132274 2.591951 -0.847390 -2.077649 -4.339340 -0.933656 7.820532 -6.956911 0.000000 -0.000000 0.000000 -4.912782 -7.991753 0.021045 0.954117 -10.810352 -0.597723 1.998444 -9.643883 -5.597150 0.000000 -0.000000 0.000000 -1.948600 0.131288 -0.612761 2.272653 -3.316797 8.391616 1.055771 -1.419370 -6.830217 -0.852670 0.005805 -2.920087 0.789891 -0.159096 -2.030318 -33.333752 -0.652992 3.662914 -53.257372 -4.890276 12.904225 8.929700 -21.568396 -8.800151 4.859691 -12.334788 -7.753624 29.396557 7.937901 3.730948 47.716827 7.422989 8.697158 -7.303151 9.525461 -19.943470 -0.973187 12.254344 -13.798521 
-0.036084 0.105182 0.984942 -175.219914 1.538089 90.972324 6.433665 5.132277 2.591934 -0.847385 -2.077642 -4.339343 -0.933654 7.820531 -6.956922 0.000000 -0.000000 0.000000 -4.912789 -7.991739 0.021024 0.954126 -10.810349 -0.597738 1.998455 -9.643878 -5.597139 0.000000 -0.000000 0.000000 -1.948575 0.131289 -0.612790 2.272641 -3.316794 8.391614 1.055762 -1.419371 -6.830171 -0.852661 0.005823 -2.920153 0.789882 -0.159127 -2.030277 -33.333747 -0.653011 3.662923 -53.257385 -4.890306 12.904193 8.929734 -21.568364 -8.800107 4.859631 -12.334806 -7.753573 29.396568 7.937906 3.730969 47.716835 7.422996 8.697121 -7.303219 9.525492 -19.943476 -0.973172 12.254342 -13.798524 
-0.036084 0.105182 0.984942 -175.219916 1.538089 90.972325 6.433664 5.132277 2.591933 -0.847384 -2.077641 -4.339343 -0.933654 7.820531 -6.956923 0.000000 -0.000000 0.000000 -4.912789 -7.991738 0.021022 0.954127 -10.810349 -0.597739 1.998456 -9.643878 -5.597137 0.000000 -0.000000 0.000000 -1.948573 0.131289 -0.612793 2.272640 -3.316794 8.391614 1.055762 -1.419371 -6.830167 -0.852660 0.005825 -2.920159 0.789882 -0.159129 -2.030273 -33.333746 -0.653013 3.662924 -53.257387 -4.890308 12.904190 8.929737 -21.568361 -8.800104 4.859626 -12.334807 -7.753569 29.396569 7.937907 3.730972 47.716837 7.422996 8.697117 -7.303225 9.525495 -19.943477 -0.973171 12.254342 -13.798525 
-0.036084 0.105182 0.984942 -175.219916 1.538089 90.972326 6.433664 5.132277 2.591932 -0.847384 -2.077641 -4.339343 -0.933653 7.820531 -6.956923 0.000000 -0.000000 0.000000 -4.912789 -7.991738 0.021021 0.954127 -10.810349 -0.597739 1.998456 -9.643878 -5.597137 0.000000 -0.000000 0.000000 -1.948572 0.131289 -0.612794 2.272639 -3.316794 8.391614 1.055762 -1.419371 -6.830167 -0.852660 0.005825 -2.920160 0.789882 -0.159130 -2.030273 -33.333745 -0.653013 3.662924 -53.257387 -4.890309 12.904190 8.929738 -21.568360 -8.800103 4.859625 -12.334808 -7.753568 29.396569 7.937907 3.730972 47.716837 7.422996 8.697117 -7.303226 9.525496 -19.943477 -0.973171 12.254341 -13.798525 
-0.037885 0.105417 0.983625 -175.748907 1.665673 91.429082 6.311127 5.249126 2.310367 -0.754297 -1.786421 -4.638912 -0.996280 7.814977 -6.936131 0.000000 -0.000000 0.000000 -5.010146 -7.673615 -0.395850 1.139439 -10.841905 -0.966837 2.314829 -9.491769 -5.178985 0.000000 -0.000000 0.000000 -1.457793 0.101910 -1.371734 1.961453 -3.236214 8.195831 0.918118 -1.410185 -5.725770 -0.693958 0.472938 -4.010242 0.526235 -0.728885 -1.228634 -32.773459 -1.120006 4.031397 -54.129286 -5.673541 12.218308 9.909282 -20.890143 -8.016045 3.647062 -12.671218 -7.114972 29.166886 8.098217 4.364573 48.506061 7.667355 8.013114 -8.814567 10.101756 -19.929109 -0.798605 12.066669 -14.302305 
-0.034542 0.109053 0.982727 -177.406818 1.606622 91.682427 6.735023 6.129025 3.174831 -1.326236 -1.401304 -5.672422 -1.094971 8.156964 -6.969719 0.000000 -0.000000 0.000000 -4.758137 -6.812319 -0.570057 0.893784 -10.587654 -1.054268 2.668094 -9.089597 -5.193836 0.000000 -0.000000 0.000000 -1.952542 -0.459046 -2.989623 1.538251 -1.797674 8.370602 1.242786 -0.947034 -4.555381 -0.144274 1.318400 -4.533907 0.395029 -1.132478 -0.505934 -31.658009 -1.115482 4.260176 -55.266359 -5.883459 11.236483 10.218698 -20.996452 -7.017546 3.079895 -13.098685 -7.355781 28.989753 8.428131 5.141500 49.576820 8.146466 7.520221 -9.319686 10.155176 -19.357992 -0.815834 12.000712 -15.076209 
-0.034187 0.109461 0.982757 -177.481266 1.567687 91.637038 6.729568 6.117756 3.235869 -1.356420 -1.378580 -5.628135 -0.995004 8.090334 -7.125575 0.000000 -0.000000 0.000000 -4.788281 -6.902385 -0.375712 0.931036 -10.490952 -1.221162 2.796963 -9.017652 -5.149469 0.000000 -0.000000 0.000000 -2.015101 -0.387010 -2.989143 1.482393 -1.867384 8.243321 1.258244 -1.006284 -4.393642 -0.161972 1.315395 -4.963358 0.353046 -1.014291 -0.040594 -31.579584 -1.213733 4.438680 -55.623713 -6.131358 11.153168 10.495355 -20.795793 -7.016323 3.088512 -13.247790 -7.491835 28.894567 8.544422 5.283134 49.937493 8.390440 7.510437 -9.492187 10.026409 -19.291208 -0.841165 11.999443 -15.345576 
-0.033924 0.109724 0.982602 -177.547954 1.530995 91.685715 6.700277 6.117761 3.179517 -1.377742 -1.407448 -5.578486 -0.862130 8.091034 -7.199755 0.000000 -0.000000 0.000000 -4.796494 -6.859682 -0.401426 0.908338 -10.460854 -1.196973 2.863942 -9.014177 -5.171922 0.000000 -0.000000 0.000000 -2.037233 -0.368614 -2.958950 1.423568 -1.878575 7.979069 1.217610 -1.007915 -4.276542 -0.202603 1.377696 -5.180979 0.443157 -1.007754 0.326144 -31.437541 -1.265424 4.508612 -55.975241 -6.214383 11.222974 10.702062 -20.713630 -7.049325 3.300058 -13.129700 -7.485261 28.895105 8.618449 5.331222 50.193921 8.454432 7.534968 -9.646158 10.001001 -19.325744 -0.924971 11.953830 -15.532939 
-0.033636 0.109944 0.982302 -177.586768 1.462715 91.688530 6.656161 6.148114 3.150411 -1.395604 -1.403858 -5.504141 -0.854505 8.036234 -7.228656 0.000000 -0.000000 0.000000 -4.870829 -6.868491 -0.369367 0.925966 -10.462367 -1.188426 2.863821 -9.004817 -5.231584 0.000000 -0.000000 0.000000 -2.091978 -0.337270 -2.880442 1.341546 -1.855671 7.793134 1.198247 -1.053371 -4.148583 -0.139015 1.404715 -5.431056 0.440373 -1.006180 0.555610 -31.313887 -1.326316 4.538069 -56.236150 -6.367942 11.226757 10.793954 -20.578046 -6.968514 3.501839 -13.121381 -7.577310 28.886962 8.591875 5.318874 50.408162 8.636651 7.518750 -9.736832 9.966374 -19.302487 -1.062898 11.945139 -15.576790 
-0.033534 0.110717 0.982262 -177.613118 1.485696 91.550106 6.717907 6.144278 3.432939 -1.419348 -1.381033 -5.681403 -0.784635 7.994915 -7.276743 0.000000 -0.000000 0.000000 -4.863002 -6.982874 -0.105745 0.948633 -10.405822 -1.290531 2.921470 -8.910064 -5.249973 0.000000 -0.000000 0.000000 -2.044512 -0.324203 -2.831242 1.299521 -1.858808 7.777609 1.177263 -1.108415 -4.053791 -0.094412 1.493666 -5.546558 0.406570 -0.994060 0.682865 -31.416341 -1.355151 4.607627 -56.262587 -6.395907 11.149329 10.837489 -20.636169 -6.788159 3.608262 -13.142421 -7.666505 28.937557 8.664195 5.427343 50.492290 8.760443 7.546792 -9.890945 9.975412 -19.361982 -1.115016 11.918519 -15.718930 
